<svg width="24" height="24" viewBox="0 0 24 24" fill="none" xmlns="http://www.w3.org/2000/svg" aria-hidden="true">
  <g transform="translate(1.9779 1.0000) scale(0.027904)">
    <path d="M370.11 5.26476L708.684 267.618C715.105 273.163 718.32 280.022 718.32 288.204V762.558C718.32 769.575 715.981 775.698 711.312 780.954C706.047 785.912 699.775 788.409 692.478 788.409H497.568C490.551 788.409 484.568 785.912 479.601 780.945C474.345 775.689 471.717 769.566 471.717 762.549V472.155H247.032V762.549C247.032 769.566 244.553 775.689 239.577 780.945C234.619 785.912 228.487 788.409 221.19 788.409H26.28C19.272 788.409 13.14 785.912 7.884 780.945C2.628 775.689 0 769.566 0 762.549V288.195C0 279.724 3.36384 273.023 10.074 268.056L337.698 5.256C342.656 1.752 348.061 0 353.904 0C360.027 0.00876 365.432 1.752 370.11 5.26476ZM327.177 582.102C335.937 573.631 346.598 569.409 359.16 569.409C372.3 569.409 383.101 573.631 391.572 582.102C400.919 591.44 405.597 602.39 405.597 614.952C405.597 627.514 400.928 638.306 391.572 647.355C383.101 656.404 372.3 660.942 359.16 660.942C346.598 660.942 335.946 656.404 327.186 647.355C318.137 638.306 313.617 627.505 313.617 614.952C313.617 602.399 318.128 591.449 327.177 582.102Z" fill="black" fill-rule="evenodd" clip-rule="evenodd"/>
  </g>
</svg>
